<svg width="21" height="18" viewBox="0 0 21 18" fill="none" xmlns="http://www.w3.org/2000/svg">
<path d="M8.5705 18C7.97968 18 7.41307 17.7629 6.9953 17.341C6.57753 16.919 6.34284 16.3467 6.34284 15.75C6.34284 15.1533 6.57753 14.581 6.9953 14.159C7.41307 13.7371 7.97968 13.5 8.5705 13.5C9.16131 13.5 9.72792 13.7371 10.1457 14.159C10.5635 14.581 10.7982 15.1533 10.7982 15.75C10.7982 16.3467 10.5635 16.919 10.1457 17.341C9.72792 17.7629 9.16131 18 8.5705 18ZM16.3673 18C15.7765 18 15.2099 17.7629 14.7921 17.341C14.3743 16.919 14.1396 16.3467 14.1396 15.75C14.1396 15.1533 14.3743 14.581 14.7921 14.159C15.2099 13.7371 15.7765 13.5 16.3673 13.5C16.9581 13.5 17.5247 13.7371 17.9425 14.159C18.3603 14.581 18.595 15.1533 18.595 15.75C18.595 16.3467 18.3603 16.919 17.9425 17.341C17.5247 17.7629 16.9581 18 16.3673 18ZM1.84519 2.16337C1.56713 2.15432 1.30347 2.03638 1.10995 1.83452C0.916428 1.63265 0.808228 1.36268 0.808228 1.08169C0.808228 0.800698 0.916428 0.530724 1.10995 0.328857C1.30347 0.12699 1.56713 0.00905829 1.84519 0H3.12721C4.13188 0 5.00067 0.70425 5.21898 1.69425L6.61461 8.0415C6.83292 9.0315 7.70171 9.73575 8.70638 9.73575H17.0735L18.6796 3.2445H8.27087C7.99544 3.23181 7.73545 3.11236 7.54497 2.911C7.3545 2.70964 7.24821 2.44186 7.24821 2.16337C7.24821 1.88489 7.3545 1.61711 7.54497 1.41575C7.73545 1.21439 7.99544 1.09494 8.27087 1.08225H18.6796C19.0052 1.08215 19.3266 1.15704 19.6192 1.30121C19.9119 1.44539 20.1681 1.65506 20.3685 1.91428C20.5689 2.17351 20.7081 2.47546 20.7756 2.7972C20.8431 3.11893 20.8371 3.45197 20.758 3.771L19.1519 10.26C19.0361 10.7282 18.7686 11.1439 18.392 11.4409C18.0154 11.7379 17.5513 11.8992 17.0735 11.8991H8.70638C7.73155 11.8993 6.78583 11.5636 6.02541 10.9475C5.26498 10.3314 4.73534 9.4718 4.52395 8.51062L3.12721 2.16337H1.84519Z" fill="#4B4B4B"/>
</svg>
