<svg width="20" height="19" viewBox="0 0 20 19" fill="none" xmlns="http://www.w3.org/2000/svg">
<path d="M9.11928 14.6117C10.7812 14.6117 12.3751 13.9519 13.5502 12.7776C14.7254 11.6033 15.3856 10.0105 15.3856 8.34975C15.3856 6.68898 14.7254 5.09624 13.5502 3.9219C12.3751 2.74757 10.7812 2.08783 9.11928 2.08783C7.45735 2.08783 5.86349 2.74757 4.68833 3.9219C3.51317 5.09624 2.85297 6.68898 2.85297 8.34975C2.85297 10.0105 3.51317 11.6033 4.68833 12.7776C5.86349 13.9519 7.45735 14.6117 9.11928 14.6117ZM15.7198 13.4699L19.4587 17.2062C19.5584 17.3025 19.6378 17.4177 19.6925 17.5451C19.7471 17.6725 19.7758 17.8094 19.7769 17.948C19.7781 18.0866 19.7515 18.224 19.6989 18.3522C19.6463 18.4805 19.5687 18.5969 19.4706 18.6948C19.3724 18.7928 19.2558 18.8702 19.1274 18.9226C18.999 18.9749 18.8615 19.0013 18.7228 19C18.5841 18.9987 18.4471 18.9698 18.3197 18.915C18.1923 18.8602 18.0772 18.7806 17.9809 18.6809L14.242 14.9446C12.5631 16.2469 10.4507 16.8609 8.33468 16.6616C6.21872 16.4623 4.2583 15.4647 2.8525 13.8718C1.4467 12.2789 0.701205 10.2105 0.767775 8.08771C0.834345 5.9649 1.70798 3.94723 3.21082 2.44543C4.71367 0.943642 6.73275 0.0706241 8.85706 0.00410053C10.9814 -0.062423 13.0512 0.682549 14.6452 2.08736C16.2392 3.49217 17.2375 5.45122 17.437 7.56571C17.6364 9.68019 17.022 11.7912 15.7187 13.4689L15.7198 13.4699Z" fill="#4B4B4B"/>
</svg>
