<svg width="19" height="19" viewBox="0 0 19 19" fill="none" xmlns="http://www.w3.org/2000/svg">
<path d="M9.85956 10.0455C12.6564 10.0455 13.9249 7.84588 13.9249 5.02273C13.9249 2.19957 12.6564 0 9.85956 0C7.06268 0 5.79422 2.19957 5.79422 5.02273C5.79422 7.84588 7.06268 10.0455 9.85956 10.0455ZM14.3627 12.1818L12.4242 13.0909C11.6432 13.4531 10.7743 13.6591 9.85956 13.6591C8.94486 13.6591 8.07941 13.4531 7.29488 13.0909L5.35641 12.1818C2.86913 12.1818 0.853271 14.2166 0.853271 16.7273V17.2955C0.853271 18.2365 1.60966 19 2.54195 19H17.1772C18.1095 19 18.8658 18.2365 18.8658 17.2955V16.7273C18.8658 14.2166 16.85 12.1818 14.3627 12.1818Z" fill="#4B4B4B"/>
</svg>
